<svg xmlns="http://www.w3.org/2000/svg" viewBox="0 0 512 512" width="512" height="512">
  <!-- Background: rose pink rounded square -->
  <rect width="512" height="512" rx="110" fill="#C0526A"/>
  <!-- Gold outer circle ring -->
  <circle cx="256" cy="256" r="210" fill="none" stroke="#D4A050" stroke-width="8"/>
  <!-- Gold inner decorative dashed circle -->
  <circle cx="256" cy="256" r="195" fill="none" stroke="#D4A050" stroke-width="2" stroke-dasharray="6 4"/>

  <!-- Chef Hat (cream/white) - puffed top -->
  <ellipse cx="256" cy="195" rx="70" ry="55" fill="#F5F0E8"/>
  <ellipse cx="215" cy="200" rx="38" ry="42" fill="#F5F0E8"/>
  <ellipse cx="297" cy="200" rx="38" ry="42" fill="#F5F0E8"/>
  <!-- Hat brim/band -->
  <rect x="186" y="228" width="140" height="28" rx="8" fill="#E8E0D0"/>
  <rect x="190" y="232" width="132" height="20" rx="6" fill="#DDD5C5"/>

  <!-- Whisk (gold) leaning right -->
  <line x1="318" y1="310" x2="360" y2="200" stroke="#D4A050" stroke-width="9" stroke-linecap="round"/>
  <path d="M345 213 Q370 230 355 252 Q340 270 318 260" fill="none" stroke="#D4A050" stroke-width="6" stroke-linecap="round"/>
  <path d="M348 218 Q378 242 360 268 Q345 285 318 272" fill="none" stroke="#D4A050" stroke-width="5" stroke-linecap="round"/>
  <path d="M340 225 Q355 250 343 268" fill="none" stroke="#D4A050" stroke-width="4" stroke-linecap="round"/>
  <ellipse cx="335" cy="278" rx="10" ry="6" fill="#D4A050"/>

  <!-- Gold flourish bottom -->
  <path d="M185 360 Q165 345 175 328 Q185 315 200 325" fill="none" stroke="#D4A050" stroke-width="5" stroke-linecap="round"/>
  <path d="M327 360 Q347 345 337 328 Q327 315 312 325" fill="none" stroke="#D4A050" stroke-width="5" stroke-linecap="round"/>
  <ellipse cx="256" cy="358" rx="6" ry="10" fill="#D4A050"/>
  <ellipse cx="244" cy="348" rx="5" ry="8" fill="#D4A050"/>
  <ellipse cx="268" cy="348" rx="5" ry="8" fill="#D4A050"/>
  <ellipse cx="256" cy="342" rx="5" ry="9" fill="#D4A050"/>
  <line x1="195" y1="360" x2="317" y2="360" stroke="#D4A050" stroke-width="4" stroke-linecap="round"/>

  <!-- Sparkles -->
  <polygon points="160,165 163,173 171,173 165,178 167,186 160,181 153,186 155,178 149,173 157,173" fill="#D4A050" opacity="0.8"/>
  <polygon points="352,155 354,161 360,161 355,165 357,171 352,167 347,171 349,165 344,161 350,161" fill="#D4A050" opacity="0.7"/>
</svg>